<?xml version="1.0" encoding="UTF-8" standalone="no"?>
<svg
   viewBox="0 0 120 120"
   version="1.1"
   id="svg8"
   sodipodi:docname="left_rotate.svg"
   inkscape:version="1.2.2 (b0a8486541, 2022-12-01)"
   xmlns:inkscape="http://www.inkscape.org/namespaces/inkscape"
   xmlns:sodipodi="http://sodipodi.sourceforge.net/DTD/sodipodi-0.dtd"
   xmlns="http://www.w3.org/2000/svg"
   xmlns:svg="http://www.w3.org/2000/svg">
  <defs
     id="defs12" />
  <sodipodi:namedview
     id="namedview10"
     pagecolor="#ffffff"
     bordercolor="#000000"
     borderopacity="0.25"
     inkscape:showpageshadow="2"
     inkscape:pageopacity="0.0"
     inkscape:pagecheckerboard="0"
     inkscape:deskcolor="#d1d1d1"
     showgrid="false"
     inkscape:zoom="1.7916667"
     inkscape:cx="-61.674418"
     inkscape:cy="-38.511628"
     inkscape:window-width="1920"
     inkscape:window-height="1015"
     inkscape:window-x="0"
     inkscape:window-y="0"
     inkscape:window-maximized="1"
     inkscape:current-layer="svg8" />
  <path
     d="m 63.505,95.5 c 19.575,0 35.5,-15.926 35.5,-35.5 0,-19.575 -15.925,-35.5 -35.5,-35.5 -13.62,0 -25.467,7.714 -31.418,19 H 9.46 C 16.52,20.347 38.038,3.5 63.5,3.5 94.704,3.5 120,28.796 120,60 c 0,31.203 -25.296,56.5 -56.5,56.5 -16.264,0 -30.91,-6.882 -41.22,-17.88 L 37.61,84.255 C 44.083,91.168 53.288,95.5 63.49,95.5 Z"
     id="path2"
     style="fill:#e6e6e6" />
  <path
     d="M 3.505,0 V 45.336 M 32.087,43.5 H 9.465"
     fill="none"
     id="path4"
     style="fill:#e6e6e6" />
  <path
     d="m 3.505,21.832 0.01,47.01 45.163,-13.03 z"
     id="path6"
     style="fill:#e6e6e6" />
</svg>
