<?xml version="1.0" encoding="UTF-8" standalone="no"?>
<svg
   viewBox="0 0 120 120"
   version="1.1"
   id="svg8"
   sodipodi:docname="right_rotate.svg"
   inkscape:version="1.2.2 (b0a8486541, 2022-12-01)"
   xmlns:inkscape="http://www.inkscape.org/namespaces/inkscape"
   xmlns:sodipodi="http://sodipodi.sourceforge.net/DTD/sodipodi-0.dtd"
   xmlns="http://www.w3.org/2000/svg"
   xmlns:svg="http://www.w3.org/2000/svg">
  <defs
     id="defs12" />
  <sodipodi:namedview
     id="namedview10"
     pagecolor="#ffffff"
     bordercolor="#000000"
     borderopacity="0.25"
     inkscape:showpageshadow="2"
     inkscape:pageopacity="0.0"
     inkscape:pagecheckerboard="0"
     inkscape:deskcolor="#d1d1d1"
     showgrid="false"
     inkscape:zoom="7.1666667"
     inkscape:cx="52.116279"
     inkscape:cy="60"
     inkscape:window-width="1920"
     inkscape:window-height="1015"
     inkscape:window-x="0"
     inkscape:window-y="0"
     inkscape:window-maximized="1"
     inkscape:current-layer="svg8" />
  <path
     d="M60 95.5c-19.575 0-35.5-15.926-35.5-35.5 0-19.575 15.925-35.5 35.5-35.5 13.62 0 25.467 7.714 31.418 19h22.627c-7.06-23.153-28.578-40-54.04-40-31.204 0-56.5 25.296-56.5 56.5 0 31.203 25.296 56.5 56.5 56.5 16.264 0 30.91-6.882 41.22-17.88l-15.33-14.365C79.422 91.168 70.217 95.5 60.015 95.5z"
     id="path2"
     style="fill:#e6e6e6" />
  <path
     d="M120 0v45.336M91.418 43.5h22.622"
     fill="none"
     id="path4"
     style="fill:#e6e6e6" />
  <path
     d="M120 21.832l-.01 47.01-45.163-13.03z"
     id="path6"
     style="fill:#e6e6e6" />
</svg>
